<svg width="1400" height="880" viewBox="0 0 1400 880" fill="none" xmlns="http://www.w3.org/2000/svg">
  <defs>
    <linearGradient id="card" x1="60" y1="40" x2="1320" y2="820" gradientUnits="userSpaceOnUse">
      <stop offset="0" stop-color="#16181B"/>
      <stop offset="0.44" stop-color="#090A0C"/>
      <stop offset="1" stop-color="#0D3B36"/>
    </linearGradient>
    <linearGradient id="line" x1="100" y1="110" x2="1280" y2="780" gradientUnits="userSpaceOnUse">
      <stop offset="0" stop-color="#F4F1EA" stop-opacity="0.38"/>
      <stop offset="0.46" stop-color="#18A999" stop-opacity="0.55"/>
      <stop offset="1" stop-color="#F4F1EA" stop-opacity="0.08"/>
    </linearGradient>
    <linearGradient id="diamond" x1="671" y1="122" x2="729" y2="228" gradientUnits="userSpaceOnUse">
      <stop offset="0" stop-color="#84FFF2"/>
      <stop offset="0.48" stop-color="#18A999"/>
      <stop offset="1" stop-color="#063C37"/>
    </linearGradient>
    <filter id="softShadow" x="-20%" y="-20%" width="140%" height="140%" color-interpolation-filters="sRGB">
      <feDropShadow dx="0" dy="22" stdDeviation="32" flood-color="#000000" flood-opacity="0.45"/>
    </filter>
    <pattern id="grain" width="90" height="90" patternUnits="userSpaceOnUse">
      <path d="M12 18h1v1h-1zM38 43h1v1h-1zM70 21h1v1h-1zM55 72h1v1h-1zM22 80h1v1h-1z" fill="#F4F1EA" opacity="0.16"/>
    </pattern>
  </defs>
  <rect x="70" y="70" width="1260" height="740" rx="34" fill="#050607" filter="url(#softShadow)"/>
  <rect x="90" y="90" width="1220" height="700" rx="28" fill="url(#card)"/>
  <rect x="112" y="112" width="1176" height="656" rx="22" stroke="url(#line)" stroke-width="2"/>
  <rect x="90" y="90" width="1220" height="700" rx="28" fill="url(#grain)" opacity="0.24"/>
  <path d="M700 115L742 185L700 255L658 185L700 115Z" fill="url(#diamond)"/>
  <path d="M700 115L700 255L658 185L700 115Z" fill="#CFFEF7" opacity="0.35"/>
  <path d="M700 115L742 185L700 185L700 115Z" fill="#F4F1EA" opacity="0.22"/>
  <path d="M700 185L742 185L700 255V185Z" fill="#031B19" opacity="0.38"/>
  <text x="700" y="375" text-anchor="middle" fill="#F4F1EA" font-family="Cormorant Garamond, Playfair Display, Georgia, serif" font-size="118" font-weight="300" letter-spacing="38">WALDO</text>
  <text x="700" y="468" text-anchor="middle" fill="#18A999" font-family="Inter, Arial, sans-serif" font-size="48" font-weight="500" letter-spacing="42">CONCIERGE</text>
  <line x1="270" y1="552" x2="1130" y2="552" stroke="#F4F1EA" stroke-opacity="0.18"/>
  <text x="218" y="650" fill="#B7B9BD" font-family="Inter, Arial, sans-serif" font-size="28" letter-spacing="9">PRIVATE MEMBER</text>
  <text x="218" y="700" fill="#F4F1EA" font-family="Cormorant Garamond, Playfair Display, Georgia, serif" font-size="54" font-weight="300" letter-spacing="6">DUBAI</text>
  <text x="1182" y="698" text-anchor="end" fill="#B7B9BD" font-family="Inter, Arial, sans-serif" font-size="24" letter-spacing="7">BY APPLICATION</text>
  <path d="M1012 176H1208M1038 208H1234M1064 240H1260" stroke="#18A999" stroke-opacity="0.18" stroke-width="2"/>
</svg>
